# xmcd
#
# Track frame offsets: 
#        150
#        23027
#        43754
#        62162
#        84607
#        118598
#        143273
#        170695
#
# Disc length: 2603 seconds
#
# Revision: 1
# Processed by: cddbd v1.5.2PL0 Copyright (c) Steve Scherf et al.
# Submitted via: ExactAudioCopy v1.0b3
#
DISCID=640a2908
DTITLE=The Silent Jazz Ensemble - Nightwalker
DYEAR=2013
DGENRE=New Age
TTITLE0=Something Between
TTITLE1=Wald
TTITLE2=Oceania
TTITLE3=Nightwalker
TTITLE4=Surprise
TTITLE5=Getting Quiet
TTITLE6=Berti's Tune
TTITLE7=Longing For The Sun
EXTD=YEAR: 2013
EXTT0=
EXTT1=
EXTT2=
EXTT3=
EXTT4=
EXTT5=
EXTT6=
EXTT7=
PLAYORDER=
